<svg width="166" height="94" viewBox="0 0 166 94" fill="none" xmlns="http://www.w3.org/2000/svg">
<g clip-path="url(#clip0)">
<path d="M59.7098 34.3075H64.215C64.6979 34.3075 65.0899 34.6987 65.0899 35.1805V55.4295C65.0899 55.9113 64.6979 56.3025 64.215 56.3025H59.7098C59.2269 56.3025 58.8349 55.9113 58.8349 55.4295V35.1805C58.8406 34.6987 59.2326 34.3075 59.7098 34.3075Z" fill="#F04E23"/>
<path d="M69.5383 34.3075H74.0379C74.4697 34.3075 74.873 34.5966 74.9128 35.1579C74.9753 35.9345 75.8104 36.3313 76.3842 35.8154C77.6171 34.7044 79.1794 33.8994 81.3667 33.8994C86.0935 33.8994 88.8489 37.0172 88.8489 42.0624V55.4521C88.8489 55.9227 88.4682 56.3025 87.9967 56.3025H83.4517C82.9801 56.3025 82.5995 55.9227 82.5995 55.4521V44.0295C82.5995 41.0761 81.2019 39.5568 78.8158 39.5568C76.4297 39.5568 74.9071 41.0761 74.9071 44.0295V55.4465C74.9071 55.917 74.5265 56.2968 74.0549 56.2968H69.5099C69.0384 56.2968 68.6577 55.917 68.6577 55.4465V35.1805C68.6691 34.6987 69.0554 34.3075 69.5383 34.3075Z" fill="#F04E23"/>
<path d="M90.7009 52.6971L92.4394 50.0271C92.7007 49.6246 93.2404 49.5112 93.6438 49.772C95.8083 51.1721 98.024 51.9034 99.8761 51.9034C101.688 51.9034 102.507 51.2458 102.507 50.2651V50.1801C102.507 48.8253 100.37 48.3774 97.9388 47.6348C94.8539 46.7335 91.3599 45.2936 91.3599 41.0307V40.9513C91.3599 36.4786 94.9789 33.9787 99.4216 33.9787C101.944 33.9787 104.66 34.744 106.921 36.0705C107.33 36.3086 107.472 36.8358 107.245 37.2496L105.682 40.0726C105.455 40.4865 104.932 40.6395 104.512 40.4184C102.592 39.3981 100.717 38.7858 99.2966 38.7858C97.7741 38.7858 96.9957 39.4434 96.9957 40.3051V40.3901C96.9957 41.6202 99.0921 42.1928 101.478 43.0147C104.563 44.0408 108.137 45.5204 108.137 49.5395V49.6189C108.137 54.4997 104.478 56.7162 99.7057 56.7162C96.8594 56.7162 93.7006 55.8432 90.9338 53.8988C90.5532 53.6211 90.4453 53.0939 90.7009 52.6971Z" fill="#F04E23"/>
<path d="M133.1 45.3447V45.2653C133.1 38.9446 128.044 33.8994 121.215 33.8994C114.346 33.8994 109.25 39.0296 109.25 45.3447V45.424C109.25 51.7448 114.306 56.79 121.135 56.79C128.004 56.79 133.1 51.6654 133.1 45.3447ZM126.936 45.424C126.936 48.6666 124.8 51.416 121.221 51.416C117.766 51.416 115.42 48.5872 115.42 45.3447V45.2653C115.42 42.0228 117.556 39.2734 121.135 39.2734C124.589 39.2734 126.936 42.1021 126.936 45.3447V45.424Z" fill="#F04E23"/>
<path d="M57.3975 26.87V26.8417C57.3975 24.4211 59.3519 22.4597 61.9766 22.4597C64.59 22.4597 66.5273 24.3928 66.5273 26.8134V26.8474C66.5273 29.2679 64.5729 31.2293 61.9482 31.2293C59.3348 31.2237 57.3975 29.2906 57.3975 26.87Z" fill="#F04E23"/>
<path d="M136.486 26.3485H140.991C141.474 26.3485 141.866 26.7396 141.866 27.2215V55.4294C141.866 55.9112 141.474 56.3024 140.991 56.3024H136.486C136.003 56.3024 135.611 55.9112 135.611 55.4294V27.2158C135.611 26.7396 136.003 26.3485 136.486 26.3485Z" fill="#F04E23"/>
<path d="M166 45.8379C166 39.6022 162.631 33.8994 155.268 33.8994C148.854 33.8994 144.372 39.0693 144.372 45.3447V45.424C144.372 52.1529 149.263 56.79 155.887 56.79C159.512 56.79 162.284 55.5032 164.307 53.3604C164.642 53.0032 164.614 52.4364 164.245 52.1132L161.892 50.0384C161.569 49.755 161.086 49.7493 160.756 50.0214C159.251 51.2629 157.842 51.7844 155.973 51.7844C153.598 51.7844 151.814 50.7187 150.95 48.6553C150.718 48.0941 151.155 47.4762 151.769 47.4762H165.108C165.568 47.4762 165.955 47.119 165.977 46.6598C165.989 46.3707 166 46.093 166 45.8379ZM158.842 43.5817H151.609C151.019 43.5817 150.593 43.0035 150.774 42.4423C151.484 40.2654 153.041 38.9049 155.262 38.9049C157.529 38.9049 159.063 40.3051 159.682 42.4706C159.842 43.0261 159.421 43.5817 158.842 43.5817Z" fill="#F04E23"/>
<path d="M11.4079 42.6066L9.82285 41.5976L11.4079 42.6066ZM45.7851 23.7352C45.8021 23.2533 45.7907 22.0176 45.7851 21.8928V23.7352Z" fill="#F04E23"/>
<path d="M38.7858 60.0212C38.7858 60.0212 38.7972 79.2214 38.8028 79.4028C38.9335 84.6011 41.7116 89.1248 45.8135 91.7041V91.6701L45.8078 79.3518L45.7964 64.4825V64.3691L38.7801 59.9078C38.7858 59.9021 38.7858 59.9418 38.7858 60.0212Z" fill="#FFCB05"/>
<path d="M45.8021 64.4769C45.8021 64.4769 58.3179 72.4302 58.6076 72.6173L68.8054 79.1024C68.8111 78.9493 68.8054 78.8076 68.8054 78.6546C68.6748 73.4676 65.9194 68.9609 61.8402 66.3759C61.8346 66.3759 61.8289 66.3703 61.8232 66.3646L45.7964 56.1778V56.1834L45.6885 56.1154L45.6942 64.4089L45.8021 64.4769Z" fill="#882086"/>
<path d="M45.7961 56.183V56.1773L45.7791 21.8924C45.5291 15.7701 42.8817 10.3054 38.7685 6.3599H38.7628C34.5075 2.28404 28.6899 -0.159216 22.3326 0.00517933C9.68622 0.311294 -0.307075 10.7929 0.00539285 23.4116C0.0394803 24.7551 0.192874 26.0703 0.448529 27.3401C1.62454 33.2357 5.06737 38.2922 9.81688 41.5915L38.7855 60.0151L45.6939 64.4084L45.8018 64.4764V64.363L45.7961 56.183ZM28.3093 45.0551L13.9642 35.9397C13.9585 35.934 13.9585 35.9283 13.9471 35.9227C9.87938 33.1506 7.16943 28.5249 7.03308 23.2359C6.81719 14.4946 13.7426 7.22723 22.5088 7.01181C31.2408 6.7964 38.5014 13.6613 38.7685 22.3629C38.7741 22.3913 38.7855 51.7159 38.7855 51.7159L28.3093 45.0551Z" fill="#F04E23"/>
<path d="M68.8054 79.108C68.7713 87.1691 62.3118 93.7902 54.1819 93.9943C51.1141 94.068 48.2337 93.2177 45.8192 91.7041V91.6701L45.8135 79.3518C45.9214 83.8018 49.6256 87.3164 54.0854 87.2031C58.5451 87.0954 62.0675 83.3993 61.9539 78.9493C61.8857 76.336 60.579 74.0458 58.6076 72.6229L68.8054 79.108Z" fill="#169D57"/>
</g>
<defs>
<clipPath id="clip0">
<rect width="166" height="94" fill="white"/>
</clipPath>
</defs>
</svg>
